<svg width="400" height="600" viewBox="0 0 400 600" fill="none" xmlns="http://www.w3.org/2000/svg">
  <rect width="400" height="600" fill="#1A1A1A"/>
  <path d="M226.934 265.711C246.719 265.711 264.486 269.102 280.236 275.883C295.986 282.664 306.572 291.898 311.994 303.586C312.303 304.359 312.251 305.08 311.84 305.75C311.43 306.42 310.916 306.832 310.301 306.988L298.869 310.59C298.15 310.746 297.482 310.617 296.867 310.203C296.252 309.789 295.842 309.248 295.637 308.578C290.215 296.579 280.39 287.562 266.162 281.527C251.934 275.493 234.729 272.475 215.451 272.475C195.871 272.475 177.822 275.519 161.305 281.605C144.787 287.691 132.638 296.346 124.857 307.572C124.344 308.242 123.625 308.63 122.7 308.733C121.776 308.836 120.954 308.578 120.236 307.959L110.016 299.207C109.503 298.691 109.221 298.099 109.169 297.429C109.118 296.76 109.375 296.139 109.94 295.572C119.033 283.676 133.098 274.435 152.137 267.85C171.175 261.264 192.591 257.972 216.383 257.972C216.795 257.972 220.168 257.972 226.934 257.972C232.666 257.972 235.882 265.711 226.934 265.711Z" fill="#A0A0A0"/>
  <path d="M132.78 336.573L154.4 318.741C155.222 318.09 156.2 318.013 157.332 318.509C158.465 319.004 159.1 319.829 159.237 320.981L162.041 343.524C162.177 344.676 161.72 345.578 160.669 346.229C159.619 346.881 158.507 346.957 157.332 346.461L135.712 338.482C134.811 338.168 134.193 337.574 133.86 336.695C133.528 335.817 133.6 334.968 134.075 334.147L134.213 333.861C134.69 333.159 135.595 333.159 136.878 333.861C137.739 334.381 138.438 334.847 138.97 335.258C139.502 335.668 140.146 336.026 140.902 336.343C141.659 336.66 142.448 336.842 143.27 336.891C144.092 336.941 144.931 336.789 145.786 336.438C147.494 335.672 148.458 334.397 148.677 332.614C148.895 330.831 148.273 329.509 146.807 328.647C146.09 328.219 145.258 327.886 144.312 327.647C143.365 327.409 142.468 327.331 141.622 327.414C140.775 327.498 140.012 327.735 139.334 328.125C138.655 328.516 138.19 329.069 137.939 329.786H130.868C131.399 326.269 132.903 323.567 135.382 321.68C137.861 319.794 140.582 318.954 143.544 319.161C147.752 319.471 151.104 321.374 153.6 324.871C156.096 328.368 156.8 331.961 155.712 335.648C154.915 338.467 153.287 340.494 150.829 341.729C148.371 342.964 145.69 343.222 142.786 342.498C140.375 341.877 138.312 340.536 136.598 338.476C134.883 336.416 133.842 334.13 133.476 331.618H133.339L128.057 345.371H123.155L130.512 326.237C130.307 326.237 130.045 326.324 129.725 326.498C129.405 326.671 129.067 326.914 128.709 327.225C128.352 327.536 127.995 327.901 127.637 328.319C127.28 328.737 126.954 329.177 126.661 329.639L121.689 327.104C122.631 325.336 123.684 323.892 124.846 322.774C126.007 321.657 127.213 320.829 128.463 320.29C129.713 319.752 130.962 319.442 132.212 319.361C133.462 319.279 134.651 319.361 135.779 319.604C136.906 319.846 137.899 320.215 138.758 320.712C139.617 321.21 140.25 321.789 140.655 322.451C140.359 322.597 139.89 322.862 139.249 323.245C138.608 323.628 137.939 324.052 137.243 324.517C136.547 324.982 135.956 325.444 135.472 325.9C134.988 326.356 134.799 326.699 134.906 326.928C135.012 327.156 135.165 327.256 135.364 327.228L149.76 328.647C150.899 328.752 151.673 329.256 152.078 330.158C152.483 331.061 152.341 331.939 151.652 332.793L139.528 347.196C138.581 348.364 137.378 348.91 135.92 348.832C134.462 348.754 133.292 348.075 132.408 346.79L129.672 342.961C129.083 342.157 128.994 341.321 129.404 340.452C129.814 339.583 130.512 339.075 131.498 338.93L132.78 336.573Z" fill="#A0A0A0"/>
  <path d="M204.668 345.5C204.668 344.029 205.18 342.834 206.204 341.915C207.229 340.995 208.465 340.535 209.91 340.535C211.356 340.535 212.591 340.995 213.617 341.915C214.642 342.834 215.156 344.029 215.156 345.5C215.156 346.942 214.642 348.122 213.617 349.042C212.591 349.962 211.356 350.422 209.91 350.422C208.465 350.422 207.229 349.962 206.204 349.042C205.18 348.122 204.668 346.942 204.668 345.5ZM238.086 335.947L206.845 319.589C206.246 319.289 205.841 318.781 205.631 318.066C205.421 317.351 205.509 316.679 205.895 316.05L213.932 303.618C214.28 302.942 214.816 302.537 215.54 302.404C216.263 302.271 216.908 302.39 217.472 302.763L248.756 319.121C249.355 319.421 249.759 319.93 249.969 320.645C250.179 321.36 250.09 322.031 249.704 322.66L241.625 335.092C241.277 335.769 240.741 336.173 240.017 336.306C239.293 336.44 238.649 336.32 238.086 335.947ZM213.375 318.917L239.904 332.458L246.162 322.99L219.633 309.45L213.375 318.917ZM211.889 341.252C210.924 341.252 210.116 341.602 209.467 342.303C208.817 343.004 208.493 344.008 208.493 345.317C208.493 346.567 208.817 347.526 209.467 348.199C210.116 348.871 210.944 349.207 211.954 349.207C212.964 349.207 213.793 348.871 214.442 348.199C215.092 347.526 215.416 346.567 215.416 345.317C215.416 344.008 215.092 343.004 214.442 342.303C213.793 341.602 212.964 341.252 211.954 341.252H211.889Z" fill="#A0A0A0"/>
  <path d="M250.235 269.07V343.5C250.235 351.971 243.482 358.737 235 358.737H165C156.518 358.737 149.765 351.971 149.765 343.5V269.07" stroke="#A0A0A0" stroke-width="4" stroke-miterlimit="10" stroke-linecap="round" stroke-linejoin="round"/>
  <text x="200" y="400" text-anchor="middle" font-family="Arial, sans-serif" font-size="24" font-weight="bold" fill="#ff9900">Topmanga</text>
  <text x="200" y="430" text-anchor="middle" font-family="Arial, sans-serif" font-size="16" fill="#FFFFFF">Rasm yuklanmadi</text>
</svg> 